<svg width="1140" height="1024" xmlns="http://www.w3.org/2000/svg" version="1.1">
 <g>
  <title>Layer 1</title>
  <g y="366.33067" x="382.0417" transform="matrix(5.33799 0 0 8.90619 -2223.31 -4291.33)" stroke="null" id="svg_4">
   <svg stroke="null" y="396.56343" x="386.78462" id="svg_5" xmlns="http://www.w3.org/2000/svg">
    <defs stroke="null">
     <clipPath stroke="null" id="svg_1">
      <rect stroke="null" id="svg_6" fill="none" height="2048" width="1795" transform="scale(0.1465,0.14648)" y="0" x="0"/>
     </clipPath>
     <linearGradient stroke="null" id="svg_3" y2="0.1736" x2="0.07261" y1="0.6168" x1="1.04841">
      <stop stroke="null" stop-color="#b57808" offset="0"/>
      <stop stroke="null" stop-color="#cca037" offset="1"/>
     </linearGradient>
     <linearGradient stroke="null" id="svg_2" y2="-0.10718" x2="0.54489" y1="0.87015" x1="0.47427">
      <stop stroke="null" stop-color="#d1aa42" offset="0"/>
      <stop stroke="null" stop-color="#edd679" offset="1"/>
     </linearGradient>
    </defs>
    <g stroke="null" id="svg_7" text-anchor="none" font-size="none" font-weight="none" font-family="none" stroke-dashoffset="0" stroke-miterlimit="10" fill-rule="nonzero" fill="none" clip-path="url(#svg_1)">
     <path stroke="null" id="svg_8" fill="#36488d" d="m172.9514,126.37793c0.9962,-3.20786 1.85323,-6.58784 2.76007,-9.83672l5.55677,-20.0146c0.50982,-1.8353 2.21949,-8.78643 2.96371,-10.00723l0.16115,0.02622c0.71346,0.92563 1.88546,5.57388 2.30006,6.95508l7.07305,23.43882c0.85556,2.86143 2.27955,8.92485 3.57901,11.41934c3.15416,0.02769 5.87175,-0.12876 8.95119,-0.16509l20.91151,-0.16128c3.20837,-0.01567 8.74023,-0.26777 11.78452,0.03237c-2.56523,1.92319 -6.87967,5.99868 -9.46981,8.24604l-22.68417,19.83853c0.90977,3.78662 2.51395,8.71436 3.65226,12.5127l5.88347,19.81934c0.92442,3.10986 2.54911,7.99658 3.19518,11.03174c-1.9968,-1.07959 -6.48998,-5.22363 -8.60692,-6.84375c-2.71612,-2.24707 -5.62123,-4.3418 -8.25678,-6.67969c-0.92442,-0.78076 -2.0261,-2.82129 -3.00326,-3.42041c-4.90777,-3.00732 -9.22515,-6.80859 -13.69049,-10.45752c-3.119,2.40088 -25.00767,23.67773 -26.15916,24.03223c1.89132,-2.9209 3.9438,-5.34668 6.05927,-8.09619l9.51962,-12.43359l6.49438,-8.51074c1.07092,-1.41797 2.84651,-3.93018 3.99654,-5.16357c5.8571,4.87061 11.76108,9.68408 17.71193,14.43896c-0.40874,-1.8501 -1.36832,-4.37549 -1.90597,-6.26367c-1.55291,-5.44922 -3.72844,-11.24414 -5.16122,-16.69189c1.40787,-1.51172 3.0311,-2.73926 4.51076,-4.12793c3.86029,-3.62124 9.10795,-7.62964 12.67231,-11.41099l-14.88154,0.01904c-2.25318,0.02388 -4.31884,0.23979 -6.62769,0.20903c-0.45415,-1.70347 -1.13538,-3.56104 -1.72871,-5.23623c-2.09935,-5.94214 -3.90131,-12.08174 -6.14277,-17.96499c-0.8248,3.47798 -2.17993,7.26035 -3.2655,10.68501c-1.3522,4.26211 -2.63994,8.60112 -4.06246,12.83262c-0.90977,-0.54653 -2.31178,-1.67666 -3.22741,-2.34419c-1.39469,-0.99844 -2.81867,-1.95483 -4.2705,-2.86772c-26.44953,-16.69819 -62.0325,-20.28604 -92.16432,-13.64824c-3.48261,0.76714 -10.70085,2.2541 -13.82263,3.82441c-1.50954,0.67075 -5.31754,1.177 -6.13252,2.04741c-0.50059,0.11792 -0.8267,0.19307 -1.3084,0.36577c-0.24055,0.0832 -0.6972,0.15937 -0.96368,0.21357c-0.01992,0.44004 1.40904,2.66792 1.73779,3.20303c-0.82128,-0.35244 -2.51498,-1.53223 -3.30095,-2.07451c-2.52523,1.41094 -6.41761,3.03384 -9.1059,4.18213c0.781,1.09805 5.94588,7.67959 5.8215,8.36689l-0.29769,0.03164c-0.9316,-0.37412 -7.61144,-6.30776 -8.76118,-7.35498c-2.69561,0.75835 -6.46376,2.61577 -9.14311,2.42563c-2.48231,-0.17622 -1.09084,-2.35254 0.61413,-3.12554c2.59336,-1.17568 5.11668,-1.88452 7.81156,-2.72842c1.02697,-1.69468 4.00284,-9.82236 5.28618,-10.27617c0.47906,1.04077 -1.56463,7.34927 -1.90553,9.13169c1.95198,-0.56807 7.6321,-1.74756 9.52548,-1.87778c0.53443,-1.16733 1.23339,-2.45215 1.80855,-3.6375c0.01948,0.95479 -0.33593,2.83008 0.24363,3.46626l0.52711,-0.06152c0.45723,-0.34702 1.89689,-0.97397 2.18389,-1.23442c1.65956,-1.50659 15.618,-6.28989 15.97517,-6.67778l-0.04249,-0.49775c0.65486,-0.37529 1.84576,-0.18911 2.6206,-0.40825c4.05382,-1.14624 8.15599,-2.19155 12.29741,-2.98184c21.53809,-4.27207 43.81924,-2.83403 64.62937,4.171c7.08038,2.43354 12.62983,4.99585 19.27363,8.31621l0,-0.00002z"/>
     <path stroke="null" id="svg_9" fill="url(#svg_3)" d="m135.467,124.02012c2.2482,0.39946 5.18246,1.35059 7.36869,2.05488c9.41077,2.98931 18.44986,7.03975 26.94543,12.07324c2.21363,1.31616 4.38916,2.6959 6.52368,4.1373c0.95665,0.63296 2.70001,1.85903 3.64933,2.34639c1.68622,-5.28486 3.33582,-10.5813 4.94879,-15.88887l2.90804,20.05576c0.40141,2.73193 0.76766,6.01758 1.25551,8.67188c-15.13645,-11.07202 -31.9811,-19.59624 -49.86767,-25.23501c-0.12804,-0.2584 -0.10885,-0.22471 -0.18562,-0.50112c0.55656,-1.6938 1.09246,-4.11709 1.56521,-5.90654c-0.75023,-0.8959 -3.93706,-0.8499 -5.11141,-1.80791l0.00002,0z"/>
     <path stroke="null" id="svg_10" fill="#36488d" d="m151.56816,145.47451c0.19338,0.00879 0.08644,-0.01743 0.30326,0.1355c0.12306,1.56138 0.04395,3.82603 0.03809,5.44175c-0.0337,3.59912 -0.02344,7.19971 0.03077,10.79883l-17.71501,0.0542c-0.01055,0.69287 0.08922,0.95215 -0.43071,1.42236l-0.29637,-0.06592c-0.46748,-0.43799 -0.53253,-0.79395 -0.7517,-1.39893l-15.07917,0.01318c-1.53928,2.06396 -3.41347,3.11572 -5.98953,1.87646c-0.93775,-0.45117 -1.54954,-1.36523 -2.48685,-1.81494c-2.72447,0.20801 -0.00015,4.05615 -0.13991,5.0918c-0.41885,0.16699 -1.10183,0.104 -1.57693,0.09668c-0.68782,-1.67871 -1.65326,-3.70605 -1.89044,-5.47705c-0.37988,-2.8374 1.71391,-3.15088 3.83524,-3.31934l0.06285,-0.11133c0.59919,-1.05322 0.69939,-1.26709 1.50002,-2.18555c0.30428,-0.26367 0.62776,-0.50391 0.96764,-0.71924c2.68463,-1.7168 4.61023,1.01953 5.79806,3.06738c3.86835,0.23145 9.41326,0.01172 13.39104,-0.04834c-0.54806,-0.6709 -1.2706,-1.73145 -2.20806,-1.73437c-0.64299,-0.00146 -1.03752,0.66064 -1.55935,1.04883l-0.33007,-0.08057c-0.76986,-0.80566 -1.40348,-2.00977 -1.01671,-3.14063c0.18444,-0.54639 0.58044,-0.99609 1.09919,-1.24805c0.68621,-0.3252 1.5321,-0.22119 2.21055,0.06006c2.17554,0.89941 3.01542,3.15527 3.8682,5.12402c2.4388,0.12598 6.3029,0.04102 8.75444,-0.03516c0.0375,-0.67676 0.19558,-1.76367 -0.16056,-2.2749c-0.32582,0.06445 -0.47686,0.13916 -0.77792,0.02051c-0.14694,-0.4834 -0.16437,-0.25635 0.0419,-0.70605c0.90288,-0.7793 3.15313,-1.18799 4.39238,-1.5c0.0961,1.28613 0.0501,3.16406 0.05274,4.50293l2.88973,-0.02783c-0.01612,-2.14893 -0.02051,-4.29785 -0.01319,-6.44531c0.0044,-0.53613 -0.0337,-1.94092 0.01758,-2.41699c0.18752,-1.77686 -0.79257,-1.28906 -1.08118,-2.15771c0.48785,-0.82617 3.16295,-1.48213 4.24999,-1.84629l-0.00001,0.00001zm-37.70298,15.26719c1.29345,-0.93896 0.90332,-2.29834 -0.58586,-2.60889c-1.01422,1.14551 -1.37095,2.42432 0.58586,2.60889z"/>
     <path stroke="null" id="svg_11" fill="url(#svg_2)" d="m89.85298,119.79639c1.48537,-0.26968 3.33978,-0.04043 4.85621,-0.12114c4.28485,-0.22837 9.04876,-0.16743 13.35237,0.04746c7.72982,0.38613 15.6577,1.75313 23.24263,3.23613c1.30195,0.27275 2.89778,0.65889 4.16282,1.06128c1.17435,0.95801 4.36118,0.91201 5.11141,1.80791c-0.47276,1.78945 -1.00866,4.21274 -1.56521,5.90654c0.07677,0.27642 0.05757,0.24272 0.18562,0.50112c-12.78248,-4.20835 -26.01838,-6.88843 -39.4311,-7.98442c-4.03023,-0.34907 -8.67284,-0.67251 -12.7104,-0.59678c0.46646,-0.51094 1.4067,0.14692 1.7167,-0.70312c0.60988,-1.67256 -1.1679,-2.03291 1.07898,-3.15498l-0.00003,0z"/>
     <path stroke="null" id="svg_12" fill="#d7b34c" d="m57.90176,184.98193c2.78791,-0.43945 5.69141,-0.41162 8.51301,-0.57568c3.46035,-0.20215 6.95834,-0.14502 10.42543,-0.1377l22.95974,0.03369l28.74725,-0.0293c6.47621,-0.00879 13.34856,-0.18018 19.76866,0.33252c0.70027,0.14941 1.22768,0.08496 1.54705,0.49658c-9.76442,0.89502 -22.1868,0.36182 -32.09361,0.42041c-15.94308,0.09521 -31.96425,-0.01611 -47.9151,0.01318c-3.74573,0.00586 -8.03571,-0.49072 -11.95241,-0.55371l-0.00002,0.00001z"/>
     <path stroke="null" id="svg_13" fill="#36488d" d="m63.08598,150.01465l0.57838,-0.04248l0.18415,0.2373c0.13463,2.09473 0.36772,11.93994 -0.39541,13.32275c-0.63142,1.14258 -3.21906,3.01465 -4.49274,3.3501c-1.44376,0.38086 -4.04166,-1.44434 -4.89503,-2.5752c-0.50689,-0.66943 -0.84707,-1.97021 -1.60433,-2.36133c-0.0775,-0.04102 -0.15837,-0.07324 -0.23748,-0.10986l-0.05508,-0.30615c0.30838,-0.68115 0.90303,-1.21289 1.42897,-1.7666c0.51978,-0.59033 1.13333,-1.37842 1.85543,-1.64062c0.8144,0.38672 -0.05626,3.53174 0.78056,4.18945c5.10643,4.01953 4.45787,-3.0835 4.43677,-5.12109c-0.99577,-0.01465 -2.28204,0.04102 -3.18566,-0.36621c-1.18373,-0.52588 -1.23134,-2.31299 -0.63493,-3.29297c1.2101,-1.98779 4.15461,-2.92236 6.23639,-3.51709l0.00001,0z"/>
     <path stroke="null" id="svg_14" fill="#36488d" d="m92.73611,146.49902c0.3686,0.54932 0.21287,7.92334 0.17902,9.12158l-1.3292,0.66797c0.86421,0.79102 1.05041,0.91699 1.70395,1.88525c0.02373,1.23193 0.02505,2.46387 0.0041,3.69434c-2.44202,0.01465 -4.88419,0.00586 -7.32606,-0.0249c-0.20657,-0.66504 -0.40522,-1.33301 -0.59567,-2.00244c-0.76195,-2.7627 1.02155,-1.80322 1.68461,-2.98535c-0.10402,-0.47461 -0.15456,-0.36768 -0.68416,-0.75146l-0.24378,-0.11865c-0.52989,-0.80273 -0.22034,-3.88623 -0.31351,-5.2002c-0.34545,-0.35596 -0.26443,-0.24316 -0.89263,-0.3208l-0.12174,-0.19922c0.41269,-1.13818 3.3616,-1.91895 4.52878,-2.34814c0.08277,2.16064 -0.0356,4.54102 0.04058,6.71338c0.01333,0.38379 0.32992,0.56689 0.58278,0.74268c0.56124,-0.0293 0.32259,0.06738 0.74364,-0.2959c0.27059,-0.60645 0.22561,-5.56348 0.069,-6.35596c-0.61208,-0.49512 -0.68299,-0.46582 -0.4042,-1.19238c0.53019,-0.40869 1.70102,-0.78076 2.37448,-1.02979l0.00001,-0.00001z"/>
     <path stroke="null" id="svg_15" fill="#bb8922" d="m63.55684,123.39316c2.78073,-0.15557 6.50624,-1.65586 9.60166,-1.84731l0.23601,-0.01377c0.09449,-0.10371 0.45357,-0.46538 0.59772,-0.46025c0.76371,0.0271 1.75083,0.21562 2.4993,0.10532c4.41377,-0.65024 8.90153,-1.18345 13.36145,-1.38076c-2.24688,1.12207 -0.4691,1.48242 -1.07898,3.15498c-0.31,0.85005 -1.25024,0.19219 -1.7167,0.70313c-1.74863,0.46245 -5.25674,-0.03237 -7.21472,-0.02402c-6.95512,0.02915 -13.80066,0.76948 -20.69073,1.65894c-0.58776,0.07573 -1.13113,0.16611 -1.72754,0.15117c0.81498,-0.87041 4.62298,-1.37666 6.13252,-2.04741l0.00001,-0.00002z"/>
     <path stroke="null" id="svg_16" fill="#36488d" d="m89.70619,169.84863l0.33563,0.13477c0.36889,0.65625 0.53824,1.0708 0.81659,1.75488l-0.046,0.16113c-0.51319,1.88525 -0.09698,2.43311 -0.37109,4.16309c-0.44668,2.81836 -3.7009,2.39063 -5.82516,1.77686c-2.04881,0.7207 -2.71334,-0.13623 -4.81885,0.49805c-1.94729,-0.64893 -2.44422,0.07764 -3.98042,-0.16406c-2.73356,-0.43066 -4.99084,0.12598 -7.59972,0.07617c-0.82524,3.55957 -5.30875,3.1582 -5.85886,1.91455l0.27615,-0.12451c1.51262,0.36182 3.82147,-0.37354 4.36133,-1.89697c-0.0712,-0.5127 -0.64094,-1.18066 -0.96661,-1.63477c-0.01714,-0.45996 0.05757,-0.71631 0.39482,-1.00342c0.61354,-0.00879 1.88034,1.45166 2.6814,1.52637c0.24554,0.04248 1.69413,-0.07617 1.61063,-0.50684c-0.48917,-2.52246 2.51996,-4.93066 4.16751,-2.53271c0.53942,0.78516 0.21477,1.94824 -0.15998,2.94141c1.522,0.10254 2.18769,0.11426 3.66413,-0.23877c0.45195,-0.56689 0.9817,-1.22461 1.73721,-1.2627c-0.00952,-0.0293 -0.07515,0.99023 -0.03326,1.35059c0.87813,0.65479 1.58455,-0.78369 1.98274,-1.31982c0.52828,-0.21533 0.25813,-0.17578 0.84414,-0.09082c0.21462,0.49072 -0.32465,0.81445 -0.11105,1.49707c1.14373,0.38232 1.42618,-0.81885 1.95857,-1.59082c0.48155,-0.22852 0.24495,-0.20947 0.7262,-0.11865c0.02915,0.16846 0.05816,0.32373 0.01524,0.49512c-0.48462,1.94678 2.59643,1.2583 3.58546,1.08398c0.09171,-1.98779 -0.14079,-3.70605 -0.12335,-5.65137c0.00571,-0.62695 0.27791,-0.8584 0.73661,-1.23779l-0.00001,-0.00002zm-16.64776,6.65332c0.52154,-0.16846 0.63977,-0.16113 0.96207,-0.56689c0.15148,-0.58447 0.15485,-0.30029 -0.01377,-0.88184c-0.43672,-0.479 -0.60432,-0.59619 -1.29023,-0.62109c-0.53751,0.42773 -0.73382,0.50684 -0.97057,1.11621c0.08687,0.8042 0.54952,0.8833 1.3125,0.95361z"/>
     <path stroke="null" id="svg_17" fill="#36488d" d="m122.54637,169.89111c1.16116,0.26221 -0.07721,5.9165 0.92955,6.87451c1.30151,1.23779 3.1924,-0.79102 4.1259,-1.66553l0.1572,0.10547c-0.0145,0.43506 -0.13009,1.2085 0.22048,1.46338c0.84033,0.60791 2.47835,0.21826 3.40585,0.06445c0.58029,-0.70166 0.69353,-0.79834 1.41095,-1.33154l0.37387,0.06738l0,-0.01611c-0.04161,0.67822 -0.17683,0.92285 0.10826,1.42383c1.59862,0.34277 1.07649,-1.67871 2.67217,-1.5c0.21638,0.55371 -0.20701,0.54785 -0.17097,1.4165c1.09832,0.5625 1.54661,-0.73828 1.97087,-1.46631c0.49151,-0.27979 0.23836,-0.23584 0.78114,-0.15967c0.03238,0.66064 -0.09288,0.94922 0.29564,1.49561c0.70994,0.46875 1.49782,0.38379 2.21494,0.26367c2.14199,-0.35742 -0.29344,-4.80176 1.10388,-6.81592c0.47173,-0.21094 0.23499,-0.19043 0.73499,-0.06006c0.97379,1.09424 -0.3557,4.61133 0.63156,6.54053c0.32596,0.33252 0.52975,0.30615 0.99782,0.36621l0.17038,0.02051c0.27777,-0.00879 1.16527,-0.07764 1.36392,-0.21387c1.73926,-1.19678 -1.43541,-6.23877 1.12835,-6.83936l0.29154,0.21973c0.10841,0.24902 0.44536,1.04736 0.43511,1.30518c-0.16115,4.1499 0.53033,8.36865 -5.46081,6.34131c-2.08207,0.72363 -2.75788,0.52002 -4.88404,0.05127c-0.50045,0.20361 -1.04558,0.41895 -1.57737,0.32959c-2.22403,-0.37354 -7.14967,0.54932 -8.92512,-0.43066c-6.25148,2.13867 -5.1747,-2.11084 -5.3672,-6.93457c-0.01465,-0.36621 0.57194,-0.6958 0.86113,-0.91553l0.00001,0z"/>
     <path stroke="null" id="svg_18" fill="#36488d" d="m158.05667,146.50781l0.3223,0c0.39848,0.58447 0.15236,13.61719 0.14797,15.33984c-0.73983,0.01611 -3.10435,0.14795 -3.5878,-0.14209c-0.03956,-2.70996 -0.01465,-5.43311 -0.0337,-8.14893c-0.0293,-1.27588 0.09962,-2.58838 -0.02491,-3.85547c-0.04981,-0.51123 -0.62995,-0.83496 -1.02111,-1.06787c0.00293,-0.17578 -0.03223,-0.39697 0.07032,-0.50684c0.58747,-0.62842 3.34461,-1.41943 4.12692,-1.61865l0.00001,0.00001z"/>
     <path stroke="null" id="svg_19" fill="#36488d" d="m99.54195,146.49756c0.2051,0.00586 0.09405,-0.02314 0.30838,0.15234c0.22166,4.17041 0.27396,11.07861 0.03003,15.24023c-1.15633,0.01172 -2.37067,0.05127 -3.51792,-0.04834l0.01773,-8.84766c0.00718,-1.08984 0.09772,-2.1958 0.03868,-3.27832c-0.03868,-0.70752 -0.79843,-0.77051 -1.08279,-1.34473l0.15851,-0.39844c0.8563,-0.52002 3.04018,-1.16895 4.04737,-1.4751l0.00001,0.00002z"/>
     <path stroke="null" id="svg_20" fill="#36488d" d="m80.55648,154.60986c4.23079,2.23682 4.36352,14.17676 -4.15857,11.55908c-0.51598,-0.34131 -1.05158,-0.6123 -1.25068,-1.16602c0.53854,-0.33252 1.76255,-0.12598 2.46224,-0.30322c2.13906,-0.58594 2.5308,-3.31494 2.12265,-5.18408c-0.26502,-1.21436 -2.0513,-0.60645 -1.81544,-1.25098c0.41709,-1.14111 1.77222,-2.77441 2.6398,-3.65479l0,0.00001z"/>
     <path stroke="null" id="svg_21" fill="#36488d" d="m70.85623,154.59668c4.53845,2.06104 4.16663,14.42578 -3.98409,11.59277c-0.83725,-0.52588 -1.21596,-0.86279 -1.96531,-1.51904c4.55471,0.43506 6.08505,-1.16455 5.11302,-5.79346c-0.59596,-0.11426 -1.37447,-0.2124 -1.98743,-0.30469c0.59303,-1.12207 2.01937,-2.91211 2.8238,-3.97559l0.00001,0.00001z"/>
     <path stroke="null" id="svg_22" fill="#36488d" d="m108.91213,171.94482c0.52535,0.39258 0.38779,3.61377 0.57663,4.86914c2.74923,0.5332 4.86514,-0.13037 7.41953,-1.11035c-1.0318,-0.22559 -2.03563,-0.49658 -3.09585,-0.46143c-1.31836,0.04541 -0.72298,0.62402 -1.53064,1.5542c-0.60197,-0.28711 -0.84487,-1.41797 -0.52887,-1.87646c1.18094,-1.71533 5.01457,-0.31494 6.58565,-0.08203l0.14738,0.02051l1.71787,0.19043l0.05347,0.21533c-0.64783,1.21143 -0.90054,0.56396 -1.94187,0.95215c-1.05246,0.375 -2.0661,1.00635 -3.12413,1.34912c-2.22139,0.72217 -5.02219,1.36963 -6.99438,-0.23438c-0.91753,0.1333 -4.1801,0.67529 -4.02218,-1.18066c0.11647,-1.36963 2.69957,-2.14893 3.54664,-2.86084c0.48433,-0.40723 0.20862,-0.72656 1.19076,-1.34473l-0.00001,0z"/>
     <path stroke="null" id="svg_23" fill="#36488d" d="m97.77515,173.73633c2.38708,-0.11865 2.66104,1.30078 3.07065,3.25928c-0.92354,3.70166 -3.88227,4.26416 -7.02061,2.77295c0.07545,-0.26074 0.00601,-0.14062 0.23162,-0.34424c1.48127,0.15527 4.59206,-0.01611 5.18026,-1.69775c-0.62702,-0.63135 -2.8969,-0.19922 -3.27517,-1.32861c-0.45547,-1.35938 0.70027,-2.25146 1.81324,-2.66162l0.00001,-0.00001z"/>
     <path stroke="null" id="svg_24" fill="#36488d" d="m93.42159,170.0127l0.27147,0.2373c0.39936,1.73145 0.425,4.24365 0.28817,6.04834c-0.08497,1.11914 -0.30106,1.57178 -1.14183,2.25146c-0.17873,-0.25195 -0.51685,-6.78369 -0.48345,-7.54248c0.23865,-0.51562 0.58703,-0.67236 1.06565,-0.99463l-0.00001,0.00001z"/>
     <path stroke="null" id="svg_25" fill="#36488d" d="m79.17601,150.31055c0.92149,-0.29736 1.90846,0.21387 2.19751,1.13818c0.28905,0.92285 -0.23074,1.90576 -1.15721,2.18701c-0.91519,0.27686 -1.88283,-0.23437 -2.16836,-1.14697c-0.28553,-0.9126 0.21799,-1.88525 1.12806,-2.17822z"/>
     <path stroke="null" id="svg_26" fill="#36488d" d="m142.91729,150.02783c0.61398,-0.15234 1.26196,0.04248 1.69164,0.50684c0.42954,0.46436 0.57282,1.125 0.37402,1.72559c-0.1988,0.60059 -0.70818,1.0459 -1.32993,1.16162c-0.92427,0.17285 -1.81837,-0.42041 -2.01746,-1.34033c-0.19924,-0.91846 0.36874,-1.82813 1.28173,-2.05371l0,-0.00001z"/>
     <path stroke="null" id="svg_27" fill="#36488d" d="m61.33003,146.10542c0.57663,-0.25049 1.24379,-0.16904 1.74321,0.2127c0.49957,0.38159 0.75316,1.00415 0.66292,1.62671c-0.09039,0.62109 -0.51055,1.14551 -1.09817,1.36963c-0.88018,0.33545 -1.8673,-0.09229 -2.22271,-0.96533c-0.35556,-0.87158 0.05069,-1.86841 0.91475,-2.2437l0,-0.00001z"/>
     <path stroke="null" id="svg_28" fill="#36488d" d="m56.46166,146.14102c0.54791,-0.29971 1.21478,-0.28169 1.7457,0.04746c0.53077,0.32959 0.84355,0.91846 0.81879,1.54248c-0.02476,0.62402 -0.38339,1.18652 -0.93863,1.47217c-0.8437,0.43359 -1.8799,0.10986 -2.32482,-0.72803c-0.44507,-0.83789 -0.13346,-1.87793 0.69895,-2.33408l0.00001,0z"/>
     <path stroke="null" id="svg_29" fill="#36488d" d="m128.59187,163.27295c0.55363,-0.29736 1.22504,-0.27246 1.7542,0.06738c0.52916,0.33838 0.83315,0.9375 0.79433,1.56445c-0.03882,0.62695 -0.41445,1.18359 -0.98141,1.45605c-0.84868,0.40576 -1.86613,0.06006 -2.29186,-0.7793c-0.42558,-0.83936 -0.10387,-1.86328 0.72474,-2.30859l0,0.00001z"/>
     <path stroke="null" id="svg_30" fill="#36488d" d="m108.54691,169.58057c0.47583,0.19775 1.15882,0.57568 1.32788,1.0708c-0.1572,0.4292 -0.22796,0.43066 -0.58776,0.70898c-0.56593,0.05566 -0.49122,-0.04248 -1.10564,-0.40723c-0.52037,0.03955 -0.64123,0.25049 -1.11516,0.59766c-0.63845,-0.23291 -1.49812,-0.55371 -1.40406,-1.33887c0.39277,-0.24316 1.19911,-0.2373 1.63216,-0.12451c0.67888,0.17432 0.69339,-0.0498 1.25258,-0.50684l0,0.00001z"/>
     <path stroke="null" id="svg_31" fill="#36488d" d="m127.55464,179.4375c0.48799,0.18896 1.1868,0.57422 1.36451,1.09131c-0.11354,0.58008 0.03282,0.375 -0.35497,0.69727c-0.7199,0.06445 -0.94039,-0.27539 -1.67143,-0.46729l-0.71273,0.66064c-0.67581,-0.2915 -2.2104,-0.84668 -0.97657,-1.66699c1.47687,-0.07764 0.85146,1.0415 2.35119,-0.31494z"/>
     <path stroke="null" id="svg_32" fill="#36488d" d="m72.67431,170.33203c0.64665,0.27246 1.22826,0.37646 1.4045,1.10449c-0.1424,0.43945 -0.38911,0.53613 -0.77909,0.80127c-0.62717,-0.29297 -1.1137,-0.4248 -1.41578,-0.9873c0.20598,-0.56982 0.24729,-0.46289 0.79037,-0.91846z"/>
     <path stroke="null" id="svg_33" fill="#bb8922" fill-opacity="0.94902" d="m148.31584,184.60547c1.56316,-0.03076 3.12339,0.07764 4.66605,0.32666c-0.99327,0.07617 -2.20777,0.07764 -3.119,0.16992c-0.31937,-0.41162 -0.84677,-0.34717 -1.54705,-0.49658z"/>
    </g>
   </svg>
  </g>
 </g>
</svg>